<?xml version="1.0" standalone="no"?>
<!DOCTYPE svg PUBLIC "-//W3C//DTD SVG 20010904//EN"
 "http://www.w3.org/TR/2001/REC-SVG-20010904/DTD/svg10.dtd">
<svg version="1.0" xmlns="http://www.w3.org/2000/svg"
 width="1150.000000pt" height="1280.000000pt" viewBox="0 0 1150.000000 1280.000000"
 preserveAspectRatio="xMidYMid meet">
<metadata>
Created by potrace 1.15, written by Peter Selinger 2001-2017
</metadata>
<g transform="translate(0.000000,1280.000000) scale(0.100000,-0.100000)"
fill="#9c27b0" stroke="none">
<path d="M7047 12786 c-23 -23 -21 -42 7 -79 50 -66 47 -124 -9 -150 -78 -37
-172 -17 -328 73 -80 46 -128 62 -127 43 1 -5 35 -35 77 -68 195 -154 283
-190 457 -189 108 0 109 0 133 30 34 42 70 119 88 188 l15 60 -27 28 c-41 43
-109 70 -193 75 -63 5 -79 3 -93 -11z"/>
<path d="M7680 12707 c-120 -36 -233 -106 -293 -182 -40 -50 -17 -44 99 25
111 67 173 90 248 90 50 0 51 -1 65 -37 7 -21 14 -54 15 -73 1 -33 -1 -35 -42
-44 -47 -11 -49 -23 -8 -83 27 -42 72 -63 134 -63 61 0 107 19 150 61 44 43
62 89 62 159 0 72 -19 98 -98 137 -80 39 -222 44 -332 10z"/>
<path d="M6250 12676 c-291 -61 -544 -282 -504 -441 6 -26 7 -25 34 22 65 113
162 194 279 232 125 41 162 25 143 -60 -29 -122 -18 -133 121 -127 85 4 111 9
154 31 60 31 89 64 104 119 22 82 -14 165 -89 206 -52 29 -153 36 -242 18z"/>
<path d="M8234 12604 c14 -55 83 -189 125 -242 112 -141 294 -229 550 -267 94
-14 130 -15 216 -6 56 7 108 10 116 7 8 -2 26 -7 42 -10 16 -4 39 -23 57 -47
34 -48 32 -56 -37 -133 -24 -26 -46 -59 -49 -72 -6 -22 -8 -23 -27 -9 -12 8
-28 15 -35 15 -8 0 -32 15 -54 34 -22 19 -70 50 -106 69 -66 34 -350 137 -379
137 -28 0 -6 -25 28 -31 19 -3 80 -24 137 -47 333 -136 647 -336 1163 -741 70
-55 104 -90 134 -139 22 -35 96 -123 165 -194 123 -129 125 -130 125 -97 0 32
2 34 65 57 66 23 100 51 100 81 0 34 -51 124 -101 176 -88 93 -194 145 -295
145 -65 0 -60 -14 14 -40 96 -33 136 -55 166 -90 34 -41 33 -62 -4 -83 -19
-12 -34 -32 -41 -57 -7 -22 -15 -40 -19 -40 -10 0 -182 177 -260 268 -69 82
-77 102 -40 102 47 0 130 114 115 159 -3 10 -23 32 -45 50 -22 18 -40 39 -40
47 0 11 -9 14 -32 12 -27 -2 -37 -11 -53 -41 -11 -21 -29 -43 -39 -49 -27 -15
-56 21 -91 114 -33 88 -84 188 -96 188 -18 0 -8 -116 17 -213 17 -64 23 -102
16 -109 -9 -9 -96 47 -258 169 l-78 58 75 6 c77 6 108 17 144 50 19 17 20 26
14 92 -12 130 -72 205 -197 247 -79 26 -276 37 -434 23 -54 -5 -98 -9 -98 -8
0 0 11 22 25 49 61 121 4 280 -120 332 -16 6 -51 15 -77 19 -45 7 -47 6 -54
-19 -4 -17 2 -50 15 -90 29 -86 28 -102 -10 -115 -18 -6 -48 -11 -67 -11 -95
0 -160 47 -293 211 -91 113 -105 125 -95 83z"/>
<path d="M5344 12441 c-50 -12 -103 -50 -131 -92 -22 -34 -24 -43 -15 -64 7
-14 29 -33 49 -42 55 -25 73 -43 73 -72 -1 -33 -16 -53 -60 -80 -50 -30 -131
-27 -272 8 -63 16 -152 35 -197 42 -77 12 -82 11 -104 -8 -34 -32 -74 -48
-175 -73 -51 -12 -102 -30 -115 -40 -58 -46 -97 -160 -142 -417 -26 -154 -53
-249 -86 -315 l-20 -39 -27 21 c-106 83 -232 150 -327 175 -113 29 -197 16
-265 -43 -100 -85 -111 -187 -41 -394 54 -164 71 -244 71 -345 1 -353 -200
-562 -528 -551 l-87 3 -45 62 c-48 66 -91 94 -118 77 -19 -13 -27 -27 -41 -79
-24 -88 -46 -85 -99 13 -46 86 -65 185 -58 294 22 329 254 509 498 387 21 -11
39 -19 42 -19 9 0 26 104 26 165 0 131 -61 230 -178 287 -60 30 -75 33 -157
33 -80 0 -97 -3 -158 -32 -126 -60 -206 -173 -248 -351 -29 -119 -23 -322 14
-463 48 -186 130 -343 232 -444 50 -50 63 -70 67 -102 3 -22 17 -57 31 -79 13
-22 28 -54 31 -71 6 -26 20 -40 65 -67 91 -56 200 -104 281 -125 l75 -20 -178
2 -178 2 -23 57 c-72 177 -248 325 -456 383 -81 23 -258 26 -350 6 -51 -12
-71 -22 -97 -50 -54 -58 -77 -116 -81 -202 -4 -67 0 -85 23 -138 72 -160 257
-231 428 -165 13 5 7 -9 -20 -44 -21 -28 -63 -97 -93 -153 -71 -131 -113 -178
-176 -199 l-49 -16 -71 -142 c-39 -78 -82 -154 -95 -168 -34 -37 -88 -62 -148
-70 -48 -6 -54 -4 -81 21 -16 15 -43 63 -61 106 -17 44 -35 82 -40 85 -5 3
-36 -2 -69 -10 -61 -16 -122 -49 -152 -82 -27 -31 -58 -106 -58 -145 0 -88 61
-183 145 -224 47 -23 170 -32 215 -17 39 14 38 5 -5 -45 -47 -55 -86 -67 -166
-53 -125 23 -201 77 -251 177 -28 58 -33 79 -36 163 -3 77 0 113 17 175 57
208 200 367 358 400 42 8 42 -1 3 -83 -17 -35 -33 -81 -36 -103 -6 -34 -3 -42
24 -67 86 -80 270 -42 327 67 29 58 26 63 -42 65 -83 3 -117 26 -121 85 l-3
41 159 -1 c127 -1 165 2 188 15 16 8 25 15 19 16 -40 1 -304 45 -372 60 -149
35 -279 95 -376 173 -13 11 -27 57 -46 154 -29 139 -46 188 -75 212 -17 14
-20 1 -32 -124 -7 -88 -36 -156 -73 -178 -39 -23 -41 -22 -41 13 0 23 -14 46
-60 95 -57 61 -60 67 -60 115 0 90 25 110 155 130 44 6 95 19 113 27 59 28 56
93 -11 190 -49 72 -64 78 -192 77 -88 0 -137 -19 -189 -70 -134 -135 -86 -426
86 -515 35 -18 36 -20 25 -48 -8 -23 -7 -38 7 -76 24 -61 23 -92 -2 -117 l-20
-21 45 -34 c105 -80 148 -81 237 -3 67 59 98 69 136 46 16 -9 63 -23 107 -32
80 -17 113 -29 113 -42 0 -12 -276 -148 -347 -171 l-62 -21 -45 22 -45 21 -90
-27 c-173 -52 -233 -43 -279 42 l-23 42 29 0 c38 0 62 28 66 76 10 105 -66
167 -202 166 -81 -1 -142 -23 -181 -65 -22 -24 -23 -32 -19 -114 5 -99 24
-147 80 -200 75 -73 197 -99 413 -89 l140 6 -35 -21 c-19 -12 -52 -36 -72 -55
-43 -39 -109 -74 -138 -74 -31 0 -25 -32 15 -80 25 -30 35 -52 35 -76 0 -31
-2 -34 -30 -34 -17 0 -44 7 -59 15 -32 16 -41 12 -41 -21 0 -54 85 -114 161
-114 24 0 27 5 33 45 8 48 19 58 77 69 l36 6 5 88 c7 113 40 193 108 256 51
48 150 106 119 70 -27 -30 -56 -95 -75 -165 -14 -50 -18 -101 -18 -239 1 -168
5 -202 40 -319 6 -21 -1 -18 -67 27 -93 63 -141 83 -201 84 -69 0 -91 -9 -83
-35 4 -12 9 -49 12 -83 6 -69 -4 -94 -69 -181 -22 -29 -37 -57 -33 -62 10 -17
84 -33 116 -26 58 13 109 82 139 189 l17 60 18 -46 c29 -78 -3 -172 -82 -237
l-37 -30 37 -16 c67 -28 139 -13 230 48 l49 32 -6 83 c-5 80 4 132 22 132 5 0
17 -20 26 -45 47 -121 212 -167 377 -105 153 57 199 174 107 272 l-30 32 28
20 c15 11 65 53 112 94 78 68 146 112 156 101 2 -2 -2 -29 -10 -59 -10 -37
-14 -85 -11 -145 3 -76 9 -102 36 -158 42 -89 117 -164 206 -208 61 -30 81
-34 162 -37 73 -3 108 1 161 17 242 73 442 346 523 712 18 82 23 135 24 250
l0 146 53 -99 c52 -97 78 -187 69 -235 -9 -48 81 -60 131 -18 50 42 53 36 45
-77 -5 -57 -8 -269 -7 -473 0 -395 8 -504 60 -800 216 -1236 962 -2181 2249
-2847 94 -48 166 -88 162 -88 -4 0 -47 15 -95 34 -477 184 -862 445 -1268 858
-205 208 -328 352 -552 647 -56 73 -102 129 -102 125 0 -5 8 -49 17 -99 21
-114 23 -380 4 -485 -16 -88 -53 -198 -88 -257 -37 -64 -116 -130 -176 -148
-58 -17 -127 -20 -127 -5 0 5 48 60 106 121 135 141 170 213 148 296 -7 25
-24 21 -24 -5 0 -28 -49 -123 -86 -169 -35 -43 -254 -213 -274 -213 -5 0 -10
6 -10 13 0 7 -18 38 -40 67 -30 41 -40 63 -40 92 l0 38 63 0 c259 1 423 189
445 515 7 100 0 271 -13 322 -8 34 15 29 47 -9 24 -29 27 -31 34 -15 4 12 -1
29 -17 50 -13 18 -52 90 -87 161 -34 71 -71 139 -81 152 -18 23 -18 21 -24
-109 -7 -157 -24 -234 -78 -344 -51 -106 -124 -183 -213 -223 -35 -16 -78 -31
-94 -32 -62 -5 -112 59 -112 142 0 39 -1 40 -27 34 -140 -32 -202 -138 -174
-298 21 -123 105 -266 191 -322 45 -30 45 -34 7 -111 -33 -68 -83 -108 -190
-153 -54 -22 -137 -65 -185 -95 -47 -30 -93 -55 -102 -55 -23 0 -160 -73 -247
-131 -189 -127 -306 -284 -358 -479 -10 -40 -19 -120 -22 -207 l-5 -142 -30
15 c-16 8 -58 24 -93 35 -36 11 -77 30 -92 43 -24 21 -27 30 -25 79 5 125 63
278 147 387 79 103 171 176 397 317 76 48 136 88 134 91 -8 7 -240 -90 -345
-145 -272 -142 -468 -321 -557 -508 -37 -78 -64 -184 -64 -258 0 -74 28 -195
65 -275 31 -66 36 -72 58 -67 13 4 49 -3 82 -14 124 -44 161 -21 270 164 26
44 49 82 51 85 3 2 58 -51 123 -119 l119 -123 99 4 c88 3 109 8 205 47 l108
44 14 51 c37 130 44 269 16 342 -14 36 -53 30 -122 -16 -49 -33 -69 -40 -108
-40 -46 0 -48 1 -63 38 -41 104 -44 231 -6 334 77 211 324 420 568 482 36 8
67 14 69 11 3 -2 -3 -25 -12 -50 -19 -48 -65 -112 -172 -235 -95 -110 -116
-161 -122 -291 -5 -125 11 -195 61 -261 134 -176 442 -122 555 97 33 66 41
178 18 258 -23 78 -43 87 -105 48 -31 -20 -61 -31 -85 -31 -33 0 -39 4 -53 37
-30 74 -5 177 64 265 l30 37 -1 -58 c-1 -47 4 -66 26 -99 43 -65 160 -113 332
-137 l48 -7 -27 -14 c-15 -8 -42 -30 -61 -50 l-33 -37 23 -63 c28 -75 53 -111
133 -184 l58 -54 -65 -66 c-141 -141 -195 -337 -140 -511 61 -197 273 -301
492 -241 216 60 404 257 516 542 28 70 62 204 62 242 l0 29 -68 -7 c-67 -6
-70 -6 -105 26 -47 41 -47 50 1 39 159 -37 341 26 420 146 123 186 101 430
-50 570 -66 61 -151 95 -239 95 l-50 0 2 -124 c3 -137 -8 -170 -57 -182 -33
-9 -35 -5 -22 42 7 21 12 91 12 154 -1 139 -24 218 -117 410 -134 275 -140
267 53 68 251 -259 447 -429 696 -600 141 -97 281 -178 386 -224 108 -48 200
-106 231 -147 24 -32 62 -126 54 -134 -2 -2 -24 5 -49 16 -185 79 -480 97
-651 40 -81 -27 -118 -50 -167 -106 -48 -55 -70 -122 -70 -212 0 -109 10 -129
110 -223 98 -93 114 -121 50 -88 -105 54 -180 161 -225 323 -18 61 -32 70 -71
42 -39 -26 -53 -76 -64 -218 -6 -75 -15 -149 -21 -164 l-11 -28 -10 28 c-7 19
-17 27 -32 27 -18 0 -30 -13 -54 -63 -68 -137 -192 -249 -432 -392 -336 -200
-446 -305 -515 -494 l-14 -36 0 36 c-1 20 6 52 14 72 16 38 12 47 -20 47 -20
0 -23 -7 -29 -59 -23 -205 -114 -364 -245 -428 -50 -25 -67 -28 -156 -28 -55
0 -119 4 -143 8 l-42 9 -25 -54 c-27 -57 -33 -136 -15 -183 l10 -26 -29 20
c-45 32 -77 27 -142 -24 -32 -25 -74 -52 -94 -61 -35 -14 -36 -14 -45 12 -34
88 -57 253 -70 499 -24 456 -37 578 -75 705 -26 85 -74 167 -123 211 -44 38
-70 46 -40 12 51 -58 98 -216 98 -329 0 -124 -41 -207 -119 -240 -46 -19 -85
-18 -105 5 -15 16 -16 25 -6 61 13 49 2 70 -39 70 -28 0 -104 -43 -133 -76
-69 -78 -98 -238 -63 -348 21 -67 80 -138 139 -168 27 -14 66 -23 116 -26 95
-5 135 16 215 110 103 123 129 116 80 -23 -59 -171 -79 -285 -80 -454 0 -172
14 -236 68 -306 67 -89 200 -120 295 -71 132 70 198 200 169 336 l-8 38 58
-45 c75 -59 119 -77 191 -77 71 0 122 29 197 112 86 94 142 235 181 456 16 91
19 101 33 88 31 -32 26 -123 -14 -255 -46 -152 -46 -229 0 -299 20 -31 33 -41
44 -36 9 3 71 9 138 13 129 8 158 18 189 66 9 13 18 42 21 64 l5 40 -56 15
c-31 9 -82 23 -113 32 -64 18 -133 76 -133 113 0 11 1 21 3 21 1 0 27 -7 57
-15 78 -21 185 -19 262 5 82 25 194 103 249 174 43 55 44 55 64 37 49 -45 111
-53 171 -25 48 23 109 96 149 179 l35 70 1 -45 c4 -99 -3 -219 -18 -285 -38
-176 -144 -308 -265 -330 -33 -6 -38 -5 -38 11 0 27 9 38 56 67 44 27 56 50
43 84 -15 41 -176 50 -246 15 -117 -60 -157 -216 -90 -348 51 -99 125 -145
234 -145 148 0 207 66 308 351 37 103 64 165 69 158 7 -8 -14 -194 -28 -250
-23 -92 -88 -216 -142 -272 -72 -74 -118 -100 -251 -141 -15 -5 11 -107 38
-151 21 -35 73 -64 112 -64 20 0 36 16 82 85 31 47 65 89 75 95 41 22 48 14
55 -68 18 -207 86 -317 220 -353 74 -20 116 -7 233 69 125 83 158 97 217 89
50 -7 51 -6 94 79 35 69 51 165 31 189 -15 18 -59 19 -130 4 -90 -19 -125 25
-96 123 27 93 85 148 251 238 74 41 171 113 157 118 -16 5 -286 -75 -397 -118
-170 -67 -275 -140 -352 -244 -57 -78 -56 -107 7 -151 36 -25 45 -38 45 -61 0
-27 -2 -29 -38 -28 -49 2 -79 18 -100 54 -23 39 -21 98 8 219 47 193 51 271
15 271 -30 0 -42 -27 -50 -105 -8 -82 -20 -105 -56 -105 -27 0 -27 0 -14 35 5
14 26 103 45 198 55 264 63 282 80 177 19 -117 74 -200 143 -220 52 -14 147
-13 160 3 5 6 13 38 16 69 10 77 20 83 86 50 101 -49 267 -33 415 41 56 27
176 99 173 103 -2 1 -28 -4 -58 -12 -108 -28 -214 -11 -433 70 -110 40 -201
51 -218 26 -5 -8 -8 -46 -7 -84 3 -74 7 -69 -66 -100 -48 -21 -60 -12 -101 72
-53 110 -93 167 -127 184 -33 15 -35 19 -52 114 -10 55 -29 142 -42 194 -13
52 -24 98 -24 103 0 4 29 21 64 37 62 27 94 59 81 80 -3 6 -12 10 -18 10 -23
0 -133 62 -166 93 -36 35 -81 119 -81 154 0 40 -11 53 -44 53 -17 -1 -42 -7
-56 -15 -14 -8 -40 -14 -57 -15 -30 0 -33 -3 -33 -30 0 -36 27 -62 88 -85 86
-32 92 -43 92 -167 0 -157 -28 -210 -112 -212 -37 -1 -44 3 -56 26 -11 23 -10
37 3 90 17 62 16 63 -5 80 -27 22 -71 23 -110 3 -16 -8 -48 -47 -76 -91 -54
-87 -90 -114 -153 -114 l-44 0 6 48 c10 84 46 179 96 254 49 72 97 122 300
307 57 52 121 117 142 144 39 48 39 48 39 19 0 -57 40 -185 86 -271 78 -149
191 -263 323 -329 70 -34 81 -37 165 -37 69 0 100 5 128 19 141 70 231 255
172 356 -19 31 -102 80 -136 80 -10 0 -36 -12 -57 -26 -103 -68 -297 -73 -417
-11 -71 37 -134 114 -134 165 0 17 5 16 58 -10 77 -38 203 -63 275 -54 107 14
178 69 181 142 1 37 0 38 -53 58 -70 27 -78 46 -18 46 l44 0 -5 80 c-6 101 10
158 58 213 85 96 211 136 456 144 222 7 236 5 260 -50 12 -29 75 -99 200 -222
99 -99 187 -190 193 -203 12 -23 11 -23 -31 4 -24 15 -119 79 -213 142 -173
118 -310 190 -400 212 -128 30 -260 7 -371 -67 -54 -35 -64 -55 -80 -161 -9
-63 13 -173 45 -224 41 -64 141 -106 141 -60 0 88 80 203 168 240 178 76 472
24 617 -109 45 -41 75 -93 75 -127 0 -19 -4 -18 -57 14 -77 46 -147 71 -250
89 -102 18 -159 19 -238 4 -202 -37 -273 -178 -183 -365 21 -46 27 -50 73 -60
51 -11 95 -30 95 -40 0 -4 -11 -15 -24 -25 -31 -24 -37 -63 -30 -178 l7 -96
41 -38 c92 -87 219 -118 339 -83 167 49 317 236 342 428 8 64 -11 160 -46 230
-16 31 -29 60 -29 63 0 11 42 4 72 -11 22 -11 33 -13 41 -5 8 8 1 22 -25 49
-21 20 -44 53 -52 73 -13 31 -13 39 -1 56 l15 21 57 -23 c77 -31 144 -38 223
-26 183 30 312 164 314 326 1 70 -22 145 -48 155 -32 12 -316 60 -357 60 -55
0 -67 -21 -46 -80 23 -66 22 -77 -15 -101 -53 -32 -152 -24 -249 22 -72 35
-149 97 -149 120 0 21 74 -1 187 -56 62 -30 115 -55 118 -55 3 0 -2 17 -10 37
-35 82 -96 120 -290 179 -130 39 -200 71 -227 101 -19 21 -36 83 -23 83 4 0
94 -29 199 -65 200 -68 275 -82 341 -68 l40 9 -70 14 c-135 25 -328 90 -313
105 4 5 214 -39 448 -94 255 -59 399 -80 638 -93 233 -12 522 -2 742 27 883
117 1643 495 2267 1126 228 232 359 393 532 654 183 277 272 459 492 1004 105
261 114 281 120 247 3 -20 11 -42 18 -49 8 -8 11 4 11 50 0 36 13 110 30 178
33 128 36 160 18 220 -11 40 -11 40 -24 -58 -12 -91 -41 -204 -50 -194 -2 2 5
66 15 143 34 241 44 437 38 717 -7 343 -38 588 -111 891 -231 952 -793 1772
-1596 2328 -562 388 -1250 636 -1909 688 -174 13 -540 13 -712 -1 -365 -29
-795 -138 -1169 -299 -875 -374 -1605 -1075 -2080 -1995 l-78 -150 -6 110 c-4
61 -4 119 0 130 12 31 45 74 71 91 l24 15 -16 -36 c-8 -19 -22 -51 -30 -70
-12 -26 -13 -41 -5 -55 6 -11 12 -20 15 -20 2 0 11 24 21 53 30 92 81 182 221
389 124 184 166 259 188 327 14 44 -13 12 -66 -80 -57 -99 -126 -182 -170
-204 -37 -20 -39 -19 -39 9 0 49 -41 154 -96 246 -64 109 -118 210 -112 214 1
2 39 -7 83 -21 82 -25 199 -35 245 -20 23 8 23 7 -5 -15 -75 -58 -129 -104
-132 -114 -7 -20 97 5 176 42 95 44 186 136 259 261 44 73 58 90 73 86 11 -3
22 -17 25 -32 11 -50 17 -66 26 -78 7 -9 52 30 161 140 397 400 878 691 1536
933 153 56 159 67 19 35 -362 -85 -829 -340 -1282 -700 -204 -162 -246 -193
-315 -228 -75 -37 -105 -42 -97 -15 3 9 17 73 31 141 30 141 46 188 87 248 27
40 95 83 131 83 24 0 44 -38 51 -100 9 -65 19 -80 57 -80 40 0 110 66 140 133
21 46 24 66 24 187 0 123 -3 141 -26 197 l-26 62 81 -30 c278 -102 514 -120
641 -50 89 50 144 148 131 234 -22 134 -162 237 -282 208z m2401 -266 c362
-43 677 -119 980 -237 766 -299 1417 -848 1805 -1522 552 -961 726 -2098 474
-3111 -273 -1098 -1043 -2054 -2059 -2555 -537 -264 -1062 -383 -1695 -382
-647 0 -1252 137 -1828 413 -687 328 -1214 811 -1581 1449 -495 859 -664 1878
-470 2832 287 1416 1448 2670 2774 2997 211 52 516 101 745 121 69 6 145 12
170 14 99 9 563 -4 685 -19z m-3793 -1090 c20 -13 39 -33 43 -45 8 -25 -23
-77 -64 -108 l-31 -23 0 24 c0 12 -15 47 -34 76 -33 51 -36 69 -13 99 13 17
51 8 99 -23z m-1405 -1359 c67 -25 147 -70 202 -115 l34 -28 -135 -6 c-143 -6
-233 -28 -291 -69 -15 -11 -30 -19 -31 -17 -9 10 -26 115 -26 155 0 55 12 79
51 103 35 21 91 15 196 -23z m850 -70 c-21 -53 -103 -318 -123 -396 -13 -52
-32 -154 -41 -227 -9 -73 -20 -130 -25 -127 -5 3 -19 26 -32 52 -24 49 -39
116 -56 242 -15 120 -30 177 -56 215 -29 43 -29 45 -6 45 10 0 58 20 106 45
49 25 94 45 102 45 9 0 10 8 4 31 -12 40 -3 58 34 75 42 18 100 18 93 0z m39
-83 c-6 -50 -28 -140 -92 -379 -7 -29 -17 -86 -23 -129 -5 -42 -12 -79 -14
-82 -11 -11 -19 94 -14 170 5 60 22 126 74 278 37 110 69 199 71 199 2 0 1
-26 -2 -57z m-528 -175 c-2 -14 -16 -30 -37 -40 -54 -27 -55 -28 -36 -133 51
-284 -58 -535 -279 -643 -120 -60 -243 -63 -382 -11 -77 29 -99 53 -114 124
-15 73 -45 135 -65 135 -9 0 -21 -11 -27 -25 -6 -14 -15 -25 -20 -25 -19 0 -6
65 27 130 19 38 35 79 35 90 0 59 54 -24 77 -118 21 -90 60 -139 139 -178 106
-52 252 -40 362 30 53 33 120 110 145 164 25 57 29 164 8 236 l-14 48 -41 -6
c-23 -4 -59 -19 -81 -33 -28 -19 -57 -28 -97 -31 l-58 -4 0 56 c0 99 60 178
157 209 69 23 185 42 266 46 34 1 38 -1 35 -21z m990 -3519 c123 -203 177
-322 212 -473 18 -77 40 -274 40 -360 0 -34 -2 -37 -16 -25 -22 18 -59 95 -72
151 -7 25 -25 114 -42 196 -33 170 -58 242 -101 302 -23 32 -33 39 -43 31 -25
-21 -66 131 -66 246 0 37 4 63 8 58 5 -6 41 -62 80 -126z m-4 -504 c-1 -77 -3
-246 -5 -375 -4 -225 -3 -237 18 -282 12 -27 17 -48 12 -48 -27 0 -169 63
-201 90 l-37 30 54 113 c97 206 135 356 135 547 1 87 3 102 13 85 8 -13 12
-66 11 -160z m-626 -282 c-27 -30 -70 -53 -95 -53 -12 1 3 20 47 60 56 50 65
56 68 38 2 -11 -7 -31 -20 -45z m843 -690 c37 -22 38 -58 5 -128 -54 -114
-190 -206 -304 -206 -43 -1 -72 5 -95 18 -36 22 -82 92 -91 141 l-5 32 52 0
c181 0 311 42 356 116 29 48 40 52 82 27z m1936 -838 c50 -20 103 -76 103
-109 0 -18 -7 -25 -29 -29 -16 -3 -39 -20 -52 -37 -55 -73 -76 -90 -113 -90
-43 0 -76 29 -76 65 0 14 7 52 17 85 9 33 13 63 10 67 -16 15 -80 2 -132 -28
-30 -17 -55 -32 -55 -34 0 -2 16 -22 35 -45 41 -49 48 -100 15 -100 -11 0 -34
-9 -52 -20 -37 -22 -92 -27 -86 -8 3 7 27 17 54 23 58 12 68 37 35 84 -51 71
-50 131 2 158 66 34 111 43 197 39 49 -2 103 -11 127 -21z m-1119 -1823 c54
-33 77 -70 68 -106 -9 -36 -17 -33 -42 17 -31 61 -64 82 -130 82 -55 0 -59 2
-46 21 21 31 87 25 150 -14z"/>
<path d="M7075 12049 c-196 -7 -237 -11 -425 -41 -847 -136 -1804 -714 -2385
-1443 -549 -689 -828 -1538 -801 -2440 18 -625 178 -1203 478 -1729 512 -897
1372 -1540 2393 -1786 525 -127 1126 -137 1655 -29 600 124 1133 384 1640 803
127 104 404 386 504 511 96 120 286 402 360 534 203 357 346 725 420 1076 107
514 94 1061 -39 1610 -150 621 -432 1195 -824 1675 -535 654 -1439 1121 -2406
1240 -142 18 -374 26 -570 19z m575 -64 c958 -115 1850 -598 2426 -1316 464
-578 719 -1171 820 -1909 21 -152 29 -615 15 -807 -53 -690 -321 -1375 -759
-1943 -197 -255 -471 -528 -714 -713 -558 -423 -1170 -663 -1858 -728 -164
-16 -613 -16 -765 0 -738 76 -1298 302 -1884 762 -146 115 -476 446 -601 604
-581 734 -872 1616 -829 2516 26 531 143 976 389 1477 156 320 333 571 607
864 658 704 1502 1122 2438 1207 144 14 556 5 715 -14z"/>
<path d="M7045 11890 c-704 -50 -1366 -269 -1905 -630 -334 -224 -671 -562
-906 -910 -331 -487 -540 -1017 -618 -1560 -50 -348 -45 -801 13 -1162 120
-741 484 -1463 995 -1973 620 -618 1513 -1000 2418 -1033 549 -21 980 49 1453
235 918 361 1728 1141 2105 2027 124 294 220 676 261 1046 16 145 16 573 0
705 -62 502 -176 885 -385 1290 -312 604 -763 1092 -1344 1452 -206 127 -516
271 -747 346 -210 69 -473 127 -690 152 -159 19 -488 27 -650 15z m432 -71
c780 -64 1535 -359 2083 -813 157 -130 248 -231 370 -411 63 -94 167 -235 231
-315 178 -222 206 -265 275 -405 175 -361 277 -707 336 -1145 17 -130 17 -631
0 -775 -127 -1037 -670 -1980 -1489 -2588 -468 -346 -1167 -596 -1843 -657
-1141 -102 -2316 448 -3067 1437 -415 547 -631 1056 -718 1693 -23 167 -30
487 -16 665 63 761 389 1508 934 2140 521 604 1269 1011 2097 1139 290 45 551
57 807 35z"/>
<path d="M7393 12343 c-42 -5 -42 -18 -2 -32 38 -13 309 -15 309 -2 0 17 -232
43 -307 34z"/>
<path d="M6850 12331 c-25 -3 -45 -10 -45 -16 0 -16 116 -17 165 -1 l45 14
-40 1 c-22 1 -49 3 -60 5 -11 2 -40 1 -65 -3z"/>
<path d="M7863 12302 c-29 -4 -29 -20 -1 -31 26 -9 53 -4 68 14 8 10 4 14 -17
16 -16 2 -38 3 -50 1z"/>
<path d="M6537 12293 c-16 -15 -3 -21 60 -26 68 -5 113 4 113 23 0 11 -162 14
-173 3z"/>
<path d="M3443 11989 c-131 -25 -216 -124 -216 -249 0 -65 19 -114 59 -153 47
-47 83 -60 175 -65 79 -4 87 -2 112 19 22 20 30 39 42 109 19 110 34 125 118
125 105 -1 168 -48 275 -208 46 -67 86 -106 98 -95 6 6 -90 162 -149 241 -67
90 -177 193 -243 229 -93 50 -181 65 -271 47z"/>
<path d="M3363 11398 c-65 -69 -89 -156 -113 -411 -17 -176 -48 -275 -103
-328 -37 -36 -98 -59 -158 -59 -83 0 -99 27 -54 94 32 47 31 56 -3 56 -30 0
-54 -25 -89 -95 -68 -133 -12 -274 139 -356 58 -32 69 -34 153 -34 78 0 97 4
147 28 94 46 138 115 158 245 15 93 2 212 -50 490 -22 114 -42 220 -45 236 -4
25 3 36 56 87 33 32 58 63 54 69 -13 22 -61 10 -92 -22z"/>
<path d="M10633 10713 c2 -108 6 -165 15 -180 17 -31 6 -29 -35 8 -19 16 -37
28 -39 26 -7 -7 35 -119 63 -166 24 -42 90 -131 136 -185 19 -21 19 -21 13 13
-4 19 -24 57 -45 85 -37 48 -64 126 -44 126 5 0 32 -16 59 -35 27 -19 64 -40
82 -46 30 -10 36 -8 58 12 43 41 55 151 22 212 -11 22 -56 20 -122 -6 -74 -28
-88 -8 -105 145 -10 83 -31 148 -50 148 -5 0 -8 -71 -8 -157z"/>
<path d="M1915 10638 c-31 -24 -55 -74 -55 -115 0 -44 39 -112 80 -139 21 -14
59 -27 88 -31 49 -5 52 -4 52 16 0 12 12 33 26 48 30 30 51 28 156 -18 84 -37
101 -30 74 29 -69 153 -329 283 -421 210z"/>
<path d="M1795 10309 c-125 -8 -184 -20 -280 -58 -199 -77 -298 -193 -299
-351 -1 -64 4 -84 30 -140 38 -79 98 -141 173 -178 50 -24 67 -27 156 -27 55
1 112 6 127 12 l26 12 -41 80 c-37 73 -41 87 -41 159 -1 68 3 86 32 144 45 91
116 159 222 211 84 42 86 42 196 42 106 0 113 -1 182 -36 l73 -36 -32 33 c-45
47 -131 89 -229 112 -103 25 -164 29 -295 21z"/>
<path d="M10890 10264 c0 -3 11 -15 25 -26 35 -27 32 -63 -10 -125 -40 -59
-44 -92 -15 -118 20 -18 20 -17 20 10 0 26 2 27 38 21 118 -19 116 -19 136 2
16 19 17 26 6 71 -20 84 -112 171 -180 171 -11 0 -20 -3 -20 -6z"/>
<path d="M11079 9845 c-29 -66 -24 -80 31 -78 80 3 110 75 45 106 -20 9 -40
17 -46 17 -6 0 -19 -20 -30 -45z"/>
<path d="M11158 9562 c-3 -10 0 -34 6 -52 13 -42 52 -60 91 -42 32 15 34 63 5
92 -27 27 -96 28 -102 2z"/>
<path d="M3164 8695 c-29 -78 11 -144 42 -70 19 47 15 109 -7 113 -12 2 -22
-11 -35 -43z"/>
<path d="M205 8657 c-92 -31 -149 -79 -184 -157 -26 -57 -26 -106 -1 -147 25
-42 55 -60 109 -69 l45 -7 -22 28 c-17 21 -22 41 -22 82 0 96 9 104 188 184
55 24 101 72 82 84 -22 14 -155 15 -195 2z"/>
<path d="M11223 8313 c1 -234 5 -315 15 -325 9 -10 12 33 14 213 2 287 -1 357
-18 394 -11 26 -13 -14 -11 -282z"/>
<path d="M11404 8576 c-3 -9 -12 -16 -20 -16 -20 0 -18 -59 2 -67 29 -11 49
11 49 52 0 40 -20 59 -31 31z"/>
<path d="M345 8564 c-49 -27 -66 -46 -91 -99 -41 -86 -23 -184 39 -213 37 -18
82 -8 71 16 -4 9 -9 36 -12 60 -4 43 -4 43 89 133 70 66 90 92 82 100 -20 20
-144 22 -178 3z"/>
<path d="M3084 8498 c-40 -36 -69 -92 -102 -204 -37 -123 -56 -135 -315 -199
-204 -52 -298 -99 -333 -167 -35 -68 3 -215 74 -285 56 -57 113 -77 217 -77
118 0 187 26 262 98 l53 52 0 -53 c0 -70 21 -120 57 -134 27 -11 153 -6 200 7
20 5 22 1 28 -53 12 -104 67 -305 80 -291 5 4 -62 434 -109 708 l-34 195 -1
-152 -1 -153 -49 0 c-26 0 -62 -5 -80 -11 -58 -20 -64 -8 -31 65 38 84 65 181
85 309 16 103 44 369 40 375 -2 2 -20 -12 -41 -30z"/>
<path d="M3162 8476 c2 -29 8 -51 16 -54 18 -6 16 60 -3 84 -14 18 -15 15 -13
-30z"/>
<path d="M523 8485 c-55 -24 -74 -67 -71 -160 5 -141 57 -199 126 -140 24 20
32 37 41 88 12 71 14 134 5 190 -6 34 -9 37 -38 37 -17 -1 -46 -7 -63 -15z"/>
<path d="M3135 8361 c-8 -14 -9 -160 0 -169 12 -12 19 12 23 71 4 66 -9 120
-23 98z"/>
<path d="M11370 8327 c-42 -21 -34 -58 20 -84 l45 -22 17 37 c10 20 18 47 18
60 0 19 -5 22 -37 22 -21 0 -49 -6 -63 -13z"/>
<path d="M11340 8093 c0 -52 31 -83 84 -83 73 0 98 40 57 91 -14 18 -31 23
-80 27 l-61 4 0 -39z"/>
<path d="M250 8085 c0 -91 -64 -145 -174 -145 l-66 0 0 -34 c0 -74 61 -105
136 -70 41 20 104 90 104 116 0 24 5 23 44 -7 64 -49 216 -97 377 -119 l47 -7
5 43 c2 24 8 52 11 63 6 18 -4 24 -76 52 -46 18 -128 48 -183 67 -55 19 -124
44 -153 55 -69 28 -72 27 -72 -14z"/>
<path d="M964 7909 c-107 -13 -128 -28 -153 -100 -25 -76 -28 -185 -6 -250 34
-100 129 -169 232 -169 l52 0 6 55 c11 84 42 138 86 149 57 14 117 -25 385
-253 55 -46 124 -100 154 -119 61 -40 170 -81 214 -82 23 0 15 7 -45 37 -100
50 -216 167 -350 353 -122 170 -212 269 -292 321 -80 52 -177 72 -283 58z"/>
<path d="M2085 7890 c-37 -13 -96 -46 -155 -88 -117 -85 -124 -100 -125 -262
0 -109 2 -118 32 -181 55 -111 170 -201 308 -240 28 -8 94 -14 150 -14 230 0
344 76 510 339 l38 59 -31 -21 c-56 -40 -154 -80 -224 -92 -148 -25 -272 20
-340 123 -41 63 -45 112 -15 210 53 173 51 187 -31 186 -31 0 -84 -9 -117 -19z"/>
<path d="M253 7853 c0 -18 -11 -35 -33 -53 -23 -19 -31 -33 -28 -51 3 -25 12
-27 61 -14 37 10 35 -5 -12 -96 -47 -90 -56 -125 -37 -136 8 -4 21 -25 29 -45
l16 -38 82 0 82 0 -7 42 c-4 23 -25 74 -46 114 -38 67 -52 124 -31 124 5 0 17
3 26 7 14 5 16 2 10 -15 -3 -12 -1 -38 6 -57 11 -30 18 -35 44 -35 16 0 42 -7
58 -14 27 -15 27 -14 27 15 0 16 -7 46 -16 67 -8 20 -15 54 -16 75 0 29 -4 37
-15 33 -48 -19 -61 -17 -79 10 -60 87 -121 121 -121 67z"/>
<path d="M11324 7805 c-22 -60 -15 -150 18 -202 l23 -38 3 45 c2 39 9 51 52
92 41 38 50 52 50 80 0 29 -5 37 -35 51 -20 9 -49 17 -65 17 -24 0 -31 -6 -46
-45z"/>
<path d="M610 7734 c-21 -39 -16 -95 11 -117 12 -10 31 -17 42 -15 17 3 21 13
24 66 3 40 0 68 -7 78 -20 23 -55 17 -70 -12z"/>
<path d="M2905 7396 c-40 -342 -139 -531 -327 -627 -70 -36 -81 -36 -107 -3
-26 33 -26 61 -2 147 11 38 17 75 14 83 -16 41 -167 -11 -235 -82 -55 -58 -78
-116 -78 -201 0 -94 27 -168 84 -227 60 -62 98 -79 186 -84 154 -8 259 65 345
241 53 109 79 206 140 506 25 123 47 226 49 229 10 10 79 -43 133 -102 77 -84
138 -193 163 -290 24 -95 25 -126 5 -194 -16 -54 -48 -99 -95 -132 -28 -20
-28 -20 -53 0 -14 11 -33 43 -42 70 -28 84 -69 89 -147 20 -61 -53 -89 -112
-89 -188 -1 -164 150 -302 318 -289 115 9 177 64 239 215 15 37 42 102 59 144
28 67 31 79 18 90 -35 29 -64 116 -83 248 -24 169 -53 230 -90 185 -7 -8 -16
-15 -21 -15 -5 0 -38 40 -74 89 -36 49 -81 103 -100 120 -41 35 -113 74 -167
89 l-36 10 -7 -52z"/>
<path d="M11295 7436 c-45 -20 -67 -50 -72 -101 -6 -44 -5 -45 23 -45 33 0 74
-24 74 -43 0 -7 -21 -47 -46 -90 -62 -104 -50 -140 24 -73 84 76 126 212 97
312 -14 48 -18 54 -43 54 -15 -1 -40 -7 -57 -14z"/>
<path d="M3037 7157 c-2 -39 -12 -107 -22 -150 -14 -64 -15 -83 -5 -107 7 -17
15 -30 19 -30 3 0 21 48 39 108 44 146 42 215 -7 242 -17 9 -19 4 -24 -63z"/>
<path d="M11046 7073 c-127 -393 -355 -834 -627 -1208 -188 -260 -530 -637
-588 -648 -31 -7 -86 -48 -102 -78 -18 -35 2 -40 31 -9 25 27 70 42 70 23 0
-5 -14 -28 -30 -53 -16 -25 -30 -55 -30 -67 0 -19 7 -22 65 -28 86 -10 115
-32 115 -87 0 -24 -9 -55 -21 -74 -41 -67 -122 -95 -324 -114 -66 -6 -140 -16
-165 -22 l-44 -11 44 -19 c70 -30 128 -40 230 -39 217 1 433 105 516 248 55
92 42 216 -33 314 l-37 49 -93 0 c-51 0 -93 3 -93 6 0 4 57 66 128 138 404
416 730 909 902 1360 53 142 130 406 118 406 -2 0 -17 -39 -32 -87z"/>
<path d="M11106 6937 c-39 -51 -48 -113 -46 -337 1 -113 2 -211 3 -217 1 -20
21 -15 45 10 26 28 29 91 7 182 -22 92 -20 141 10 170 28 29 43 30 92 10 46
-20 63 -19 63 3 0 9 9 31 20 47 11 17 20 40 20 53 0 42 -99 112 -159 112 -22
0 -37 -9 -55 -33z"/>
<path d="M1112 6836 c-24 -8 -61 -27 -83 -42 l-39 -27 0 -76 c0 -148 44 -254
150 -362 113 -115 256 -176 435 -186 55 -3 97 -3 94 1 -3 3 -40 15 -81 25
-190 49 -305 156 -315 294 -6 80 15 121 82 164 28 17 69 48 93 69 l43 37 -23
24 c-12 13 -50 38 -85 54 -50 25 -77 32 -145 35 -54 3 -98 -1 -126 -10z"/>
<path d="M1830 6671 c-152 -47 -221 -217 -152 -374 29 -64 104 -142 170 -174
45 -22 73 -28 148 -31 112 -5 193 16 298 78 58 34 236 173 236 184 0 2 -28 -8
-62 -23 -56 -23 -76 -26 -178 -26 -105 0 -120 2 -175 28 -73 34 -102 60 -126
112 -22 48 -23 106 -3 160 31 81 35 75 -52 74 -44 0 -90 -4 -104 -8z"/>
<path d="M2644 6375 c-39 -38 -115 -112 -170 -164 l-100 -93 -94 -24 c-334
-84 -569 -260 -598 -447 -18 -112 32 -226 122 -282 66 -40 156 -43 229 -6 72
37 73 41 37 114 -55 112 -51 223 11 354 47 98 174 225 249 248 24 7 24 7 8
-12 -25 -27 -73 -137 -93 -213 -21 -80 -31 -305 -17 -380 25 -134 89 -237 176
-283 63 -33 166 -31 228 5 84 50 149 151 170 266 28 151 -50 269 -205 309 -72
18 -81 8 -73 -78 7 -62 5 -68 -15 -83 -21 -14 -24 -14 -41 1 -10 9 -30 40 -44
70 -24 48 -26 62 -22 136 6 108 36 174 168 363 103 147 154 235 148 257 -2 7
-35 -19 -74 -58z"/>
<path d="M10855 6341 c-58 -27 -86 -62 -92 -115 l-6 -46 45 0 c62 0 83 -17 75
-64 -8 -49 -35 -85 -112 -145 -36 -28 -65 -55 -65 -59 0 -9 87 1 136 16 85 26
153 77 186 139 41 77 61 201 38 242 -12 24 -81 51 -128 51 -20 0 -55 -9 -77
-19z"/>
<path d="M2759 6271 c-33 -32 -39 -45 -39 -80 0 -23 7 -56 16 -73 15 -29 18
-30 61 -25 76 8 129 61 139 139 6 44 5 47 -24 62 -17 9 -50 16 -73 16 -35 0
-48 -6 -80 -39z"/>
<path d="M873 6155 c-69 -35 -123 -110 -123 -171 0 -50 59 -124 125 -157 100
-49 275 -49 418 1 85 29 200 93 179 100 -5 1 -57 -4 -115 -12 -132 -20 -177
-20 -227 0 -68 27 -94 108 -45 140 33 22 48 50 40 75 -17 53 -165 67 -252 24z"/>
<path d="M1870 6026 c-153 -53 -253 -119 -394 -263 -149 -152 -253 -308 -290
-432 -20 -70 -21 -184 0 -244 65 -192 374 -282 562 -163 74 46 113 124 113
223 0 36 -2 67 -4 70 -3 2 -32 -3 -65 -11 -33 -9 -81 -16 -107 -16 -44 0 -50
4 -109 63 -119 119 -135 234 -55 396 67 136 225 287 384 370 70 36 56 39 -35
7z"/>
<path d="M10489 5807 c-100 -67 -173 -239 -199 -467 -12 -105 -4 -245 12 -216
5 9 20 74 33 144 13 70 29 143 36 162 26 77 87 130 148 130 27 0 31 -4 41 -42
6 -24 13 -51 16 -60 7 -23 73 -24 115 -2 43 22 61 72 67 189 l5 101 -37 27
c-80 62 -176 76 -237 34z"/>
<path d="M9604 5042 c-56 -37 -130 -102 -117 -102 15 0 125 74 148 100 28 31
14 32 -31 2z"/>
<path d="M4820 4885 c0 -14 20 -77 45 -139 25 -63 45 -122 45 -131 0 -53 49
-75 173 -75 58 0 77 3 77 13 0 31 -66 142 -117 198 -50 54 -191 159 -214 159
-5 0 -9 -11 -9 -25z"/>
<path d="M993 4689 c-105 -13 -194 -78 -247 -180 -27 -52 -29 -59 -16 -88 95
-231 387 -225 626 14 77 77 115 136 129 200 l7 30 -28 -35 c-80 -100 -177
-156 -300 -173 l-76 -11 -23 28 c-28 36 -35 73 -23 138 15 79 12 84 -49 77z"/>
<path d="M8961 4652 c-49 -19 -66 -42 -31 -42 25 0 90 37 90 51 0 12 -7 11
-59 -9z"/>
<path d="M9183 4655 c-168 -46 -250 -130 -390 -401 l-76 -147 33 19 c32 19 63
55 154 180 57 80 121 114 213 114 l63 0 0 -78 0 -79 39 -11 c84 -26 147 -8
203 57 76 90 78 228 4 326 l-27 35 -82 -1 c-45 0 -106 -7 -134 -14z"/>
<path d="M8810 4586 c-77 -29 -246 -123 -237 -132 7 -7 133 38 189 68 52 28
113 79 92 77 -5 0 -25 -6 -44 -13z"/>
<path d="M3316 4484 c12 -97 -27 -216 -98 -306 -17 -22 -86 -84 -153 -138
-139 -112 -178 -155 -204 -224 l-18 -48 -31 38 c-17 20 -41 63 -53 93 -34 87
-78 167 -106 193 l-26 23 7 -60 c4 -37 22 -93 46 -146 53 -113 52 -134 -1
-150 -56 -17 -133 -89 -163 -152 -88 -188 -38 -472 98 -556 47 -30 120 -37
175 -17 24 9 45 16 47 16 3 0 -8 -18 -23 -41 -35 -54 -73 -72 -146 -70 -72 1
-103 17 -151 76 -38 45 -92 82 -104 70 -4 -4 -7 -52 -7 -108 0 -85 4 -111 24
-154 28 -62 103 -136 166 -163 226 -97 529 3 630 207 46 93 46 247 0 366 -6
13 -2 17 17 17 40 0 67 27 83 85 13 44 14 64 4 119 -13 75 -28 96 -68 96 -34
0 -49 -15 -57 -58 -7 -36 -36 -65 -59 -60 -9 1 -23 19 -29 39 -7 20 -34 63
-59 96 -26 33 -47 64 -47 70 0 6 24 25 53 41 111 63 225 223 277 387 34 108
38 258 11 365 -25 99 -43 128 -35 54z m-426 -1044 c13 -13 20 -33 20 -59 0
-44 -10 -55 -40 -46 -17 5 -20 15 -20 66 0 63 8 71 40 39z"/>
<path d="M8432 4435 c-73 -23 -76 -25 -64 -37 8 -8 28 -7 76 6 74 20 108 46
60 45 -16 0 -48 -6 -72 -14z"/>
<path d="M8090 4346 c0 -22 49 -29 76 -11 13 8 24 18 24 20 0 3 -22 5 -50 5
-36 0 -50 -4 -50 -14z"/>
<path d="M8290 4294 c-112 -49 -130 -105 -56 -177 76 -74 70 -105 -27 -147
-92 -40 -169 -16 -327 101 -47 34 -100 71 -117 82 -41 24 -43 13 -12 -68 42
-113 196 -223 365 -260 116 -26 269 -18 352 20 117 52 178 160 153 271 -27
121 -115 194 -232 194 -35 -1 -80 -8 -99 -16z"/>
<path d="M6561 4279 c-41 -12 -31 -22 42 -40 36 -8 52 -8 60 0 8 8 7 15 -3 25
-21 21 -60 26 -99 15z"/>
<path d="M1201 4188 c-107 -197 -164 -367 -163 -493 0 -94 18 -149 69 -217
l37 -48 123 0 c148 0 186 12 208 64 23 54 19 170 -6 223 -11 24 -24 43 -27 43
-4 0 -27 -14 -51 -30 -27 -18 -57 -30 -77 -30 -31 0 -36 5 -81 88 -65 119 -65
157 0 304 26 59 47 115 47 125 0 19 -18 43 -31 43 -4 0 -26 -33 -48 -72z"/>
<path d="M6901 4230 c-25 -5 -48 -13 -52 -17 -13 -13 356 -16 417 -3 31 7 54
13 52 15 -9 8 -379 12 -417 5z"/>
<path d="M7555 4220 c-3 -5 -7 -49 -8 -97 -2 -72 -8 -99 -31 -151 -56 -122
-177 -185 -200 -104 -3 10 -10 36 -16 60 -8 29 -19 46 -35 54 -21 10 -32 6
-79 -25 -65 -43 -101 -87 -122 -152 -43 -125 35 -297 167 -370 47 -26 64 -30
129 -30 81 0 127 18 202 77 126 99 213 355 178 523 -23 112 -98 225 -150 225
-16 0 -32 -4 -35 -10z"/>
<path d="M7138 4130 c-148 -44 -265 -250 -298 -524 -13 -104 -7 -152 31 -263
16 -46 29 -94 29 -108 0 -32 -21 -74 -49 -99 -21 -19 -21 -18 -68 18 -53 42
-86 46 -107 13 -51 -76 -62 -212 -26 -291 78 -166 314 -216 445 -95 60 55 88
125 89 219 0 95 -18 155 -101 333 -105 229 -117 267 -118 377 0 84 3 101 27
146 34 64 115 137 208 187 l71 39 58 -61 c80 -83 115 -78 77 12 -35 84 -161
129 -268 97z"/>
<path d="M8873 3985 c-29 -8 -75 -26 -102 -39 -47 -24 -111 -79 -111 -96 0 -4
21 -1 48 7 55 17 184 13 247 -9 36 -12 40 -17 43 -50 2 -20 -4 -53 -12 -73
-25 -59 -21 -75 17 -75 64 1 133 45 201 132 32 40 37 52 31 79 -11 47 -82 113
-137 127 -62 16 -160 14 -225 -3z"/>
<path d="M1995 3820 c7 -26 52 -100 60 -100 11 0 3 17 -31 70 -20 32 -32 45
-29 30z"/>
<path d="M2460 3757 c-151 -80 -246 -158 -201 -165 63 -10 202 50 261 114 30
33 90 128 78 123 -2 -1 -64 -33 -138 -72z"/>
<path d="M7851 3734 c-1 -58 28 -130 85 -204 60 -81 82 -118 94 -162 8 -26 7
-27 -21 -21 -26 5 -29 3 -29 -18 0 -13 -13 -52 -30 -87 -23 -48 -60 -95 -157
-195 -110 -114 -125 -132 -105 -135 62 -9 209 71 280 154 43 50 122 193 122
223 1 41 15 42 76 6 169 -102 398 -121 578 -49 77 31 97 63 104 175 4 67 1 84
-20 130 -46 100 -119 148 -223 149 -79 0 -135 -16 -135 -38 0 -9 10 -56 22
-105 21 -80 21 -90 8 -114 -21 -37 -114 -61 -171 -44 -21 7 -39 16 -39 22 0 5
14 33 30 62 23 42 30 66 30 110 0 47 -3 57 -21 62 -11 4 -25 18 -31 31 -7 15
-17 23 -27 20 -9 -3 -29 -8 -46 -12 -16 -3 -74 -22 -127 -41 -57 -20 -105 -32
-117 -28 -19 6 -64 52 -108 111 l-22 29 0 -31z"/>
<path d="M6559 3610 c-91 -16 -164 -70 -210 -160 -22 -41 -24 -57 -23 -180 0
-119 3 -145 27 -215 46 -138 146 -278 228 -320 26 -14 43 -5 19 10 -16 10 -66
114 -84 174 -9 30 -16 87 -16 126 0 86 30 154 86 199 35 28 38 28 120 22 l84
-7 11 28 c16 40 5 132 -21 184 -12 24 -40 68 -62 97 -44 57 -54 60 -159 42z"/>
<path d="M7760 3504 c0 -48 -33 -127 -68 -166 -44 -48 -122 -88 -174 -88 -34
0 -40 4 -59 43 -57 114 -83 106 -209 -66 -24 -33 -19 -125 10 -182 38 -73 91
-98 193 -92 101 7 198 51 284 131 137 127 155 282 48 411 -22 27 -24 28 -25 9z"/>
<path d="M1884 3432 c-133 -77 -210 -137 -315 -243 -304 -307 -424 -738 -276
-991 32 -54 121 -139 175 -167 132 -67 302 -66 411 4 111 71 164 204 146 369
-8 79 -15 81 -105 36 -42 -21 -74 -30 -109 -30 -46 0 -54 4 -99 48 -193 188
-191 460 5 753 48 73 174 200 241 244 23 15 42 29 42 31 0 10 -24 -1 -116 -54z"/>
<path d="M3503 3395 c-69 -29 -94 -109 -50 -160 20 -24 27 -26 61 -20 58 11
97 51 103 106 6 50 -4 64 -54 78 -19 6 -40 4 -60 -4z"/>
<path d="M5312 3100 c-244 -87 -278 -260 -87 -439 149 -139 369 -204 518 -154
31 11 57 17 56 14 0 -3 -46 -46 -101 -96 -187 -167 -298 -331 -334 -491 -56
-252 51 -561 221 -640 91 -43 176 -24 253 56 36 38 40 46 35 79 -9 54 -26 83
-84 137 -136 127 -134 122 -134 314 0 196 15 258 105 434 158 311 179 344 228
378 196 132 297 272 267 368 -6 19 -10 15 -29 -32 -41 -101 -121 -180 -240
-238 -95 -46 -176 -63 -281 -58 -108 5 -168 30 -236 98 -68 68 -76 102 -48
196 19 64 20 77 8 85 -22 14 -59 10 -117 -11z"/>
<path d="M4697 2986 c-4 -9 -17 -16 -31 -16 -20 0 -27 -8 -40 -47 -9 -26 -16
-76 -16 -112 1 -145 86 -240 218 -244 l57 -2 -1 30 c-1 17 -5 47 -9 67 -7 34
-5 39 16 47 31 11 39 6 134 -85 112 -107 156 -134 221 -134 29 0 56 5 59 10 3
6 -2 10 -12 10 -33 0 -123 60 -154 103 -17 23 -51 83 -76 132 -92 183 -158
241 -292 252 -57 5 -69 3 -74 -11z"/>
<path d="M7272 2825 c-1 -127 -59 -218 -174 -271 -57 -26 -73 -29 -168 -29
-97 0 -110 2 -170 31 -36 17 -83 46 -104 65 l-39 33 6 -29 c15 -76 18 -147 8
-218 -28 -201 -134 -357 -298 -437 -161 -80 -334 -57 -475 60 l-46 40 -16 -40
c-40 -101 -39 -250 3 -362 30 -78 46 -94 121 -118 135 -44 291 -36 402 21 56
29 155 130 197 202 97 165 161 447 161 709 l0 80 33 -44 c43 -57 142 -122 225
-149 136 -43 324 -34 433 22 58 29 129 97 150 144 21 45 25 139 9 196 -16 58
-82 125 -146 148 -30 12 -68 21 -83 21 l-29 0 0 -75z"/>
<path d="M6222 2843 c-45 -63 -46 -160 -2 -183 48 -26 145 2 185 53 13 17 28
28 32 23 4 -4 10 -43 12 -87 3 -70 0 -86 -23 -134 -56 -114 -201 -193 -276
-149 -38 23 -44 47 -37 131 l6 65 -41 -6 c-60 -10 -143 -52 -174 -89 -42 -49
-56 -94 -57 -178 -1 -95 27 -158 90 -202 113 -80 334 -25 479 118 136 134 172
305 104 488 -16 43 -27 57 -57 71 -21 10 -53 30 -73 45 -84 67 -137 77 -168
34z"/>
<path d="M6788 2208 c20 -54 20 -340 0 -438 l-13 -65 -40 1 c-22 1 -62 8 -89
16 -69 21 -91 14 -104 -30 -27 -90 -21 -169 19 -294 19 -57 27 -69 52 -78 42
-14 142 -13 180 3 46 20 101 86 126 151 74 199 15 622 -106 749 -37 38 -43 34
-25 -15z"/>
<path d="M1210 2180 c0 -5 9 -32 20 -60 24 -61 25 -74 4 -94 -20 -20 -68 -20
-128 0 -44 15 -51 15 -82 0 -32 -15 -34 -18 -34 -68 0 -98 48 -151 145 -163
64 -8 104 15 133 77 51 105 48 228 -8 288 -28 30 -50 39 -50 20z"/>
<path d="M3107 2049 c-48 -49 -67 -59 -347 -192 -182 -86 -234 -142 -270 -293
-11 -49 -32 -107 -45 -130 -32 -55 -32 -103 1 -224 33 -118 35 -193 9 -237
-35 -60 -103 -65 -151 -12 -55 61 -104 -34 -104 -204 l0 -72 73 -33 c82 -36
125 -40 182 -13 127 58 140 167 64 506 -38 167 -45 234 -27 258 13 18 16 17
46 -11 82 -77 250 -63 340 29 l29 30 22 -59 c34 -95 82 -131 157 -119 61 10
107 54 128 125 7 22 6 22 -88 22 l-95 0 10 32 c16 56 12 77 -17 84 -14 4 -30
2 -37 -5 -27 -27 -53 -12 -92 55 -21 36 -47 70 -57 75 -17 9 -18 12 -2 38 9
15 71 75 138 132 157 135 226 202 226 222 0 16 -26 48 -38 46 -4 -1 -29 -23
-55 -50z"/>
<path d="M3500 2076 c-163 -47 -243 -127 -243 -242 0 -58 24 -116 77 -181 37
-46 46 -46 46 2 0 47 55 149 103 190 134 115 316 125 432 23 42 -37 47 -39 40
-18 -30 98 -87 165 -177 205 -73 33 -204 43 -278 21z"/>
<path d="M5247 2014 c-56 -62 -75 -124 -39 -124 11 0 30 12 41 26 26 33 54
106 49 131 -2 17 -11 11 -51 -33z"/>
<path d="M7025 2020 c-3 -5 6 -37 20 -71 108 -256 54 -595 -120 -758 -79 -73
-148 -102 -262 -109 -103 -6 -113 1 -113 74 0 53 -1 54 -29 54 -35 0 -76 -31
-98 -73 -20 -40 -22 -148 -4 -239 13 -68 14 -68 71 -103 83 -51 136 -67 215
-68 78 0 121 15 191 65 81 58 171 201 217 343 82 254 82 598 1 799 -33 82 -69
118 -89 86z"/>
<path d="M1950 1875 c0 -62 -4 -79 -20 -95 -30 -30 -87 -26 -151 10 -137 75
-135 75 -178 61 -51 -15 -52 -27 -3 -35 23 -4 63 -26 106 -58 135 -103 172
-127 224 -144 59 -18 117 -15 176 10 28 12 36 21 42 53 9 47 -9 134 -36 179
-22 35 -85 77 -132 88 l-28 6 0 -75z"/>
<path d="M1400 1872 c0 -6 12 -68 26 -139 36 -175 38 -310 6 -375 -39 -78
-140 -121 -197 -84 -21 14 -25 24 -25 66 0 28 -2 50 -5 50 -19 0 -118 -53
-149 -80 -112 -99 -108 -261 11 -382 110 -112 271 -121 400 -22 40 30 86 108
110 184 24 77 25 317 1 415 -26 104 -54 181 -94 254 -37 68 -84 130 -84 113z"/>
<path d="M3588 1811 c-51 -17 -88 -45 -98 -76 -17 -54 -32 -165 -26 -190 8
-33 -17 -45 -98 -45 -53 0 -70 -4 -91 -23 l-27 -22 17 -65 c22 -87 80 -223
124 -289 125 -191 391 -329 464 -240 34 42 23 65 -60 121 -230 158 -287 217
-315 321 -14 54 -18 48 63 97 22 14 72 64 110 112 115 143 161 174 279 186
l65 7 -44 32 c-70 52 -144 76 -246 79 -49 2 -102 0 -117 -5z"/>
<path d="M1625 1733 c133 -320 156 -644 60 -834 -52 -102 -172 -188 -273 -196
-49 -4 -63 2 -161 71 -37 26 -43 27 -71 16 l-30 -13 2 -176 3 -175 70 -44
c156 -96 304 -99 412 -8 75 63 142 204 179 376 28 129 26 438 -4 578 -31 143
-76 260 -133 347 -46 71 -70 96 -54 58z"/>
<path d="M4000 1569 c-145 -13 -251 -59 -325 -141 -51 -57 -94 -156 -73 -169
34 -22 120 -30 190 -19 170 26 283 129 295 269 3 32 2 60 -3 63 -5 2 -43 1
-84 -3z"/>
<path d="M5286 1524 c-3 -27 -11 -123 -16 -214 -21 -326 -49 -479 -112 -607
-61 -124 -185 -220 -299 -231 -48 -4 -49 -4 -63 29 -8 19 -17 51 -21 72 -4 20
-13 37 -20 37 -7 0 -35 -20 -63 -45 -82 -74 -113 -167 -92 -272 17 -81 54
-146 120 -207 147 -136 349 -107 461 66 83 130 114 293 135 712 6 119 7 127
18 94 33 -96 107 -143 221 -143 126 1 242 61 284 148 26 53 26 80 2 132 -20
44 -72 105 -90 105 -6 0 -22 -24 -35 -54 -30 -68 -49 -79 -113 -66 -123 27
-168 84 -238 305 -25 77 -51 151 -59 164 -13 24 -14 23 -20 -25z"/>
<path d="M4138 1482 c-14 -152 -139 -269 -341 -317 -40 -10 -74 -19 -76 -21
-2 -2 8 -21 22 -43 56 -84 174 -121 279 -86 119 39 222 141 255 254 24 84 6
148 -61 217 -29 30 -57 54 -63 54 -5 0 -13 -26 -15 -58z"/>
<path d="M4330 1432 c0 -10 9 -69 21 -132 25 -139 21 -179 -28 -238 -77 -95
-207 -149 -330 -139 -35 2 -63 1 -63 -4 0 -21 24 -67 47 -91 80 -84 305 -73
454 23 63 40 82 94 81 229 -1 150 -52 281 -134 344 -41 31 -48 32 -48 8z"/>
<path d="M5126 1374 c-7 -56 -39 -130 -69 -162 -46 -49 -154 -85 -176 -59 -6
8 -14 29 -17 48 -15 78 -43 88 -114 40 -50 -33 -95 -97 -111 -155 -19 -70 -7
-183 27 -250 29 -58 30 -60 94 -78 131 -36 201 -19 282 70 119 133 185 363
145 503 -9 31 -25 63 -35 73 -19 16 -19 15 -26 -30z"/>
<path d="M3180 1249 c0 -15 -64 -39 -107 -39 -21 0 -55 -5 -76 -11 -68 -18
-76 -92 -14 -129 60 -37 147 -18 214 46 47 45 56 82 27 122 -16 23 -44 30 -44
11z"/>
<path d="M3224 1062 c-68 -24 -129 -74 -164 -136 -29 -49 -40 -116 -21 -116
23 0 193 50 237 69 59 27 92 56 110 98 25 57 19 78 -25 91 -51 16 -76 15 -137
-6z"/>
<path d="M3404 881 c-107 -49 -139 -194 -55 -244 16 -9 50 -17 75 -17 l45 0
-6 48 c-7 61 12 160 37 194 11 15 20 30 20 33 0 12 -78 3 -116 -14z"/>
<path d="M3580 797 c-30 -18 -57 -41 -58 -51 -8 -38 10 -87 44 -121 27 -28 43
-35 72 -35 21 0 46 6 56 13 16 12 16 14 2 26 -20 17 -20 45 0 104 34 100 -13
126 -116 64z"/>
<path d="M2215 491 c-138 -47 -163 -60 -208 -110 -39 -43 -57 -93 -57 -158 0
-40 3 -44 46 -69 37 -22 63 -28 125 -32 76 -4 79 -4 79 17 0 12 7 36 16 52 8
17 14 42 12 57 -3 24 -8 28 -48 32 -43 5 -45 6 -44 36 2 42 33 82 113 145 79
63 86 69 81 68 -3 0 -54 -17 -115 -38z"/>
</g>
</svg>
